/* XPM */
static char *a44f65bd93c34238bef631f96ef7de77cvazvUsMwPaURzgn[] = {
/* columns rows colors chars-per-pixel */
"60 60 195 2 ",
"   c #1A0F1A",
".  c #1C141C",
"X  c #1D1C1D",
"o  c #22171B",
"O  c #2B171A",
"+  c #231B1C",
"@  c #2A191C",
"#  c #37191D",
"$  c #341D1C",
"%  c #1F231C",
"&  c #1E2C1B",
"*  c #1F341B",
"=  c #1C3A1B",
"-  c #23241D",
";  c #222B1D",
":  c #2A2A1C",
">  c #30211C",
",  c #21341E",
"<  c #213B1C",
"1  c #1F2922",
"2  c #222622",
"3  c #212D24",
"4  c #202F28",
"5  c #233223",
"6  c #263726",
"7  c #293A27",
"8  c #451C1E",
"9  c #491D1E",
"0  c #49241B",
"q  c #53231D",
"w  c #5C241E",
"e  c #5D2C1B",
"r  c #4D311F",
"t  c #60251F",
"y  c #6A2A1F",
"u  c #722B1F",
"i  c #5A2820",
"p  c #693722",
"a  c #7A3222",
"s  c #1E431A",
"d  c #1F4E1B",
"f  c #21431D",
"g  c #224B1D",
"h  c #22541B",
"j  c #235B1B",
"k  c #1E6515",
"l  c #1C6D12",
"z  c #1E7512",
"x  c #1F7C13",
"c  c #206E16",
"v  c #22641B",
"b  c #236B1B",
"n  c #217516",
"m  c #217C16",
"M  c #23731A",
"N  c #247A1A",
"B  c #26492F",
"V  c #2C4A2C",
"C  c #364F2D",
"Z  c #2E522E",
"A  c #264C30",
"S  c #285333",
"D  c #2B5A34",
"F  c #345C33",
"G  c #2C6236",
"H  c #2D6B3B",
"J  c #386A35",
"K  c #3A6F3B",
"L  c #2D733F",
"P  c #30773F",
"I  c #46431E",
"U  c #744719",
"Y  c #71521E",
"T  c #417338",
"R  c #427B3B",
"E  c #2C7640",
"W  c #317F43",
"Q  c #8A371F",
"!  c #823220",
"~  c #923422",
"^  c #A93D23",
"/  c #82411A",
"(  c #944A19",
")  c #9A481B",
"_  c #8E5A18",
"`  c #A3491B",
"'  c #B44A1F",
"]  c #B94D1E",
"[  c #A85517",
"{  c #B4521C",
"}  c #BF6118",
"|  c #B34422",
" . c #BB4323",
".. c #BA4B20",
"X. c #C54E1F",
"o. c #C6571C",
"O. c #D3561D",
"+. c #D6591E",
"@. c #C56B17",
"#. c #DD631B",
"$. c #D36818",
"%. c #E56D17",
"&. c #E86F17",
"*. c #E1651A",
"=. c #E46B19",
"-. c #E77216",
";. c #EB7515",
":. c #EE7A14",
">. c #E6731A",
",. c #E77D1C",
"<. c #EA7C19",
"1. c #CD4F21",
"2. c #CE5020",
"3. c #D55620",
"4. c #1F8113",
"5. c #208513",
"6. c #218C14",
"7. c #26871A",
"8. c #268A1A",
"9. c #229314",
"0. c #239C14",
"q. c #269419",
"w. c #279B19",
"e. c #289B1A",
"r. c #25A315",
"t. c #26AD15",
"y. c #26AE15",
"u. c #28A619",
"i. c #26B015",
"p. c #28B217",
"a. c #28B417",
"s. c #28B517",
"d. c #28BA17",
"f. c #29B618",
"g. c #29BA18",
"h. c #2F8C39",
"j. c #50823D",
"k. c #2F8440",
"l. c #388B44",
"z. c #399448",
"x. c #3D9D4B",
"c. c #3FA34B",
"v. c #458B42",
"b. c #4B9945",
"n. c #419C49",
"m. c #519843",
"M. c #658D44",
"N. c #669946",
"B. c #42A34C",
"V. c #48A54B",
"C. c #44AB4E",
"Z. c #51A446",
"A. c #55A44A",
"S. c #4CB34F",
"D. c #53B64D",
"F. c #54BA4D",
"G. c #4DB950",
"H. c #63BB4F",
"J. c #6BBD51",
"K. c #57C14F",
"L. c #56C250",
"P. c #5BC550",
"I. c #61C353",
"U. c #6CC455",
"Y. c #66C954",
"T. c #69C956",
"R. c #76CB54",
"E. c #6ED254",
"W. c #7BD659",
"Q. c #7DDA58",
"!. c #DD9B1D",
"~. c #EB8615",
"^. c #E98A17",
"/. c #F28414",
"(. c #F38B14",
"). c #F98813",
"_. c #F69215",
"`. c #F79917",
"'. c #F99B16",
"]. c #FDA315",
"[. c #F9A71A",
"{. c #FCAD1A",
"}. c #FCB31D",
"|. c #FDBA1F",
" X c #F9B422",
".X c #FDBE22",
"XX c #FEC424",
"oX c #FFC826",
"OX c #88CC57",
"+X c #85DD5A",
"@X c #88D85B",
"#X c #8CE15C",
"$X c #92E75E",
"%X c #9AE95F",
"&X c #9CE960",
/* pixels */
"y.y.y.i.y.i.9.z z 0.i.y.5.0.r.5.y.y.y.y.y.y.y.y.y.y.y.4.y.6.0.r.x i.r.z 5.y.s.9.0.y.5.0.d.6.r.y.y.y.y.i.y.y.y.y.y.y.y.y.",
"y.y.y.r.y.i.r.r.y.y.y.y.0.6.0.y.y.i.i.y.i.y.y.y.y.y.r.5.0.i.9.9.5.y.6.x 6.4.x 9.y.y.r.4.y.i.6.y.y.y.y.y.i.y.y.y.y.y.y.y.",
"y.y.0.6.r.y.5.5.y.i.y.y.5.y.5.r.r.0.r.y.r.y.i.y.y.r.6.9.5.y.i.5.r.9.x x 9.r.6.9.y.y.0.x r.i.y.y.y.i.9.5.r.i.y.y.y.i.y.y.",
"i.r.6.y.x 9.x x 9.y.y.r.6.f.5.9.5.5.9.5.6.y.r.i.y.5.y.9.0.r.y.4.0.5.0.y.y.6.r.0.0.r.6.x r.i.y.y.y.i.9.x 9.r.i.y.y.r.y.y.",
"y.9.0.p.z 0.0.9.r.9.r.4.0.i.x 5.9.r.0.x 6.y.9.r.i.9.s.5.5.9.g.5.y.r.9.r.i.0.y.9.5.6.g.5.r.i.y.i.y.i.9.9.y.9.r.i.y.x 9.y.",
"r.x r.9.9.y.9.6.y.r.9.5.r.0.5.9.5.5.9.0.5.y.y.9.9.r.r.z 5.y.r.9.r.r.y.9.9.r.r.x x r.r.6.y.i.y.0.y.i.0.5.0.0.9.r.y.x 6.9.",
"6.9.0.4.r.6.0.0.0.d.0.r.y.9.r.x 9.y.y.i.r.0.d.9.x r.x 5.y.y.9.y.r.9.s.0.z 0.5.x r.y.9.r.y.i.r.z 9.y.i.0.x r.9.9.0.z 9.0.",
"0.9.r.6.6.0.y.y.y.y.y.y.y.i.r.x 9.9.y.r.0.i.i.0.6.r.0.r.i.y.0.y.0.y.i.r.0.i.0.r.i.y.y.i.y.i.r.x 9.0.i.r.6.i.9.x 6.9.0.0.",
"s.0.y.r.0.y.y.y.y.y.y.y.y.i.r.4.i.0.9.9.5.i.0.0.5.x r.i.i.r.5.f.5.r.5.5.0.y.i.i.y.y.y.9.y.i.r.x 9.6.0.6.6.s.6.4.6.6.9.9.",
"y.i.y.y.i.y.i.0.0.y.y.y.y.y.6.6.9.r.z 5.0.0.z 9.5.6.9.r.y.6.0.p.z 5.9.0.9.0.i.i.i.y.9.0.9.y.y.5.4.y.0.6.r.0.z x 9.9.9.y.",
"y.y.y.y.y.y.i.6.z 0.y.y.y.6.0.9.0.0.5.0.9.r.9.r.5.0.y.9.0.x y.r.x 9.5.6.x 9.r.0.b h s N 5.0.9.y.5.i.y.r.i.r.9.0.y.i.i.y.",
"y.y.r.5.4.9.y.5.6.9.0.y.r.5.f.5.y.y.r.i.0.9.y.i.r.5.y.y.6.0.r.m h j j N 5.9.i.6.& 4 4 ; j 5.r.p.5.y.y.i.y.y.i.i.y.y.y.y.",
"i.r.5.0.0.6.4.x 9.p.9.0.5.0.i.5.r.i.r.4.9.0.9.y.9.9.y.s.r.y.y.q.; 7 2 g 8.6.0.p.< K v.6 % M 0.6.r.y.y.y.9.0.y.y.y.5.r.i.",
"y.y.0.4.x 5.0.r.6.0.s.6.z 0.6.r.6.0.5.5.0.r.6.9.0.9.0.y.y.y.i.r., v.J X < q.r.w.* M.+Xm.3 % n r.y.y.i.9.0.0.0.y.y.4.r.i.",
"y.y.y.r.r.9.4.4.9.5.0.5.0.r.5.g.x z z 6.y.0.5.5.y.9.9.5.x 5.r.r., P S.T X f e.< X N.%X+Xb.; c y.6.y.i.9.r.0.6.6.f.6.r.i.",
"y.y.y.y.i.y.r.r.y.5.x 9.y.5.r.y.5.9.5.r.9.9.z 6.s.6.x 9.r.r.5.0.* L U.R.T , e., G J.&X+XZ.; n y.y.6.r.r.y.6.z 0.s.6.r.i.",
"i.y.0.5.r.y.i.i.y.4.r.0.9.5.0.4.r.0.5.y.r.6.5.9.y.x 5.5.4.4.4.q.& 4 N.$XN., q., v.W.%X+XZ.5 e.9.s.r.z 9.9.z 9.y.9.0.y.y.",
"i.r.4.9.5.y.i.r.5.z 9.s.9.9.r.5.9.6.0.9.s.r.9.y.9.x 4.r.y.y.r.6.b & j.#XJ.G g D J.$X#XY.z.; q.y.y.9.6.y.9.9.y.y.y.y.y.y.",
"i.r.4.0.5.r.r.9.x 9.9.r.d.9.y.r.6.y.y.y.i.y.y.i.r.r.y.i.y.0.r.i.9.* R E.T.W 2 A.+X#XT.n.S X c y.9.9.y.y.y.y.y.y.y.y.y.y.",
"i.r.5.r.0.x 6.y.0.9.y.y.y.y.y.y.y.y.y.y.y.i.y.r.5.9.y.i.y.x 9.i.y.& R L.V.H F OX#XY.n.S X f m 9.9.y.y.i.r.r.i.y.y.y.y.y.",
"y.i.0.5.y.5.5.y.9.0.i.y.y.y.y.i.y.y.y.i.r.r.i.5.9.5.0.y.0.9.g.r.r.* R S.H 7 H.+XY.n.S . & 8.9.9.y.y.y.r.9.9.r.i.i.i.y.y.",
"i.i.r.0.g.y.0.6.9.i.i.i.i.y.y.0.y.y.i.r.9.9.r.5.9.0.6.0.x 0.q.6.r.f R C.H C @XY.x.A . . . 5 v 9.y.y.i.6.0.0.9.0.6.9.y.i.",
"y.y.i.y.y.i.r.9.9.r.0.5.6.y.r.x 9.y.i.9.9.r.6.0.6.r.5.g ; ; ; < e.h.z.H Z A.P.B.B X . . 1 H 6 M 0.y.r.6.y.9.x 6.9.0.9.y.",
"i.r.9.y.y.i.6.0.0.x 9.x 5.5.5.z 9.9.r.6.y.0.6.i.5.g * p ~ ~ a o f k.z.z.b.L.x.B X .   1 L k.3 7.0.9.9.5.s.6.4.6.6.9.9.y.",
"i.r.z 9.y.0.5.y.9.4.i.5.4.9.9.x y.0.x 5.r.6.r.r.h . w ] #.+. .u @ L C.F.L.n.A .   6 G v.I.V.3 M s.0.5.r.0.z x 9.9.9.y.i.",
"i.r.x 0.9.9.5.0.9.r.9.9.9.5.5.z 6.r.x r.9.z 0.q.+ w ] <./.%.3. .$ E G.Z.K D B A F m.T.Q.R.R 2 N s.y.r.i.r.9.0.y.i.i.y.y.",
"i.r.5.i.0.6.r.6.6.9.9.y.y.x 0.x 0.r.0.y.y.0.5.v > ] ;.'.`.:.=. .i F l.J 5 B x.B.I.Q.+XU.R X < q.i.y.y.y.i.i.i.y.y.y.y.y.",
"y.y.9.6.i.0.9.6.z 9.y.i.r.5.f.5.0.5.4.6.y.i.N o 0 $.'..X|.`.-.1. .w o S x.c.K.P.W.J.n.G X < w.y.y.i.0.9.y.y.y.y.y.6.r.y.",
"y.y.y.9.9.y.y.6.9.0.0.y.5.0.i.x 4.0.y.0.9.0.j 0 .._.|.oXoX|.`.-.1. .t F D.D.K.F.n.D 3 1 , w.y.y.y.i.9.z 9.y.y.y.6.r.6.r.",
"y.i.r.6.r.6.y.5.6.s.9.0.5.r.r.x 9.4.4.6.y.M r ' %.'..XoXoXoX|.`.-.2.| p 7 V l.V 5 b q.q.w.y.i.y.y.i.9.6.0.9.y.y.4.y.5.r.",
"i.y.0.9.y.4.9.x x 0.p.9.0.r.4.l 5.r.r.y.b & e =.:.}.XXoXoXoXoX|.`.>.*.o.` a 6 X j 0.i.i.i.i.y.0.5.r.9.6.p.0.9.5.l x z r.",
"r.r.4.y.r.z 5.r.y.9.r.y.y.4.0.5.0.y.i.i.d 8 ` :._.}.XXoXoXoXXX}.]./.;.:.=.^ @ v 5.0.i.y.y.r.r.5.9.x 9.0.0.d.6.z z r.9.r.",
"6.9.5.y.6.x 9.x x 0.y.y.y.5.0.r.4.y.y.7.I ) >.(._.{.XX X}.|.}._._.:.;.&.o.u + u.9.0.i.y.0.6.0.0.5.0.0.r.0.y.5.9.5.0.d.d.",
"p.6.y.r.4.x 0.0.9.y.y.y.y.y.4.y.9.0.8.& Q ,.{.].(..XoX`.~.(._.:.;.;.&.o.u o * 7.6.r.y.y.5.p.5.r.6.l z 4.4.0.9.0.y.6.y.g.",
"y.y.y.y.y.y.y.i.r.r.i.y.y.y.6.r.d.5.; $ [ [.oX.X{.XXoX{.,.+.-.;.-.%.o.y . & k 5.9.y.y.0.6.f.x 6.5.6.9.r.y.y.y.y.y.y.y.i.",
"y.y.y.y.i.i.i.i.5.4.r.i.y.y.0.9.0.q.: [ (.}.oXoXXXXX{.].(.#.O.%.X. .y o * n x 0.r.9.r.x r.y.z 5.9.r.0.0.i.i.y.y.y.y.y.y.",
"y.y.i.r.9.6.0.i.5.5.9.r.i.y.5.f.M , O } _.}.oXoXXX{.].(.:.-.*...q # @ < c y.9.4.y.r.9.6.r.6.z 6.4.k 5.i.0.r.i.y.y.y.y.y.",
"y.y.r.6.6.6.6.6.x 0.y.9.r.9.9.e.* O ( ~.(.`.|.XX{.].(.:.;.=.] w o d M n 0.r.6.6.r.d.0.y.y.5.l z 9.6.5.r.9.9.r.y.y.y.y.y.",
"y.y.y.6.5.5.6.9.0.6.y.y.6.z r.b $ ( ~.{.[.[.}.}.].(.:.;.=.] w . s q.0.5.0.6.r.i.y.9.5.6.y.r.x 6.6.y.5.6.0.0.9.i.y.y.y.y.",
"y.y.y.y.9.9.6.6.6.9.r.s.4.6.8.= r ~.{.XXoXXX{.(.<.;.;.=.] t X h q.5.9.0.5.r.y.y.9.6.9.9.5.4.x i.r.9.6.5.y.9.9.i.y.y.y.y.",
"i.r.6.y.i.i.r.x 6.9.r.y.0.y.h O U [.XXoXXX{.(.%.O.#.@.` t X h y.i.5.9.y.5.0.5.5.6.5.5.5.9.0.0.9.i.0.x 5.0.6.r.i.y.y.y.y.",
"y.r.z 6.y.y.y.6.r.9.9.y.i.r.s e ^.XXoXXX{.(.;.;.=.| 0 - - g 6.y.i.y.y.r.z 6.0.y.9.9.0.0.5.5.6.r.9.0.x r.6.9.i.y.y.y.y.y.",
"i.r.5.r.9.y.0.5.9.x x x 0.j X Y .XoXoX{.(.:.;.=.| 8 o b n w.i.y.y.y.i.9.4.6.5.r.y.y.y.y.r.9.6.f.z 9.0.9.r.y.y.y.y.y.y.y.",
"i.r.5.i.r.9.9.z 0.6.5.x z = U !.XX{.{.(.:.;.=.| 9 o h q.r.5.y.i.y.i.0.6.9.9.r.y.y.y.6.r.y.5.r.r.4.y.0.z 9.y.y.y.5.r.i.y.",
"y.y.0.5.i.r.6.5.y.9.x r.h X _ {.[././.:.*.) e 9 + h w.6.r.r.r.y.y.r.r.y.y.y.i.g.0.r.p.9.0.x 0.5.r.0.z 9.0.0.y.y.5.0.i.y.",
"y.i.0.z 6.y.6.6.y.6.9.u., e @.'./.;.#.( a 8 & v v 5.s.6.9.5.4.6.0.5.5.y.i.i.y.y.s.i.y.p.6.x y.6.9.6.9.r.r.5.6.p.6.0.i.y.",
"y.i.0.5.y.9.6.9.6.l 6.5.; [ )./.$.` ! # & f b y.6.9.s.4.x 9.r.r.5.0.5.y.y.y.y.9.r.r.6.r.i.5.r.y.6.0.r.y.6.z 0.p.6.r.i.y.",
"y.i.r.5.y.y.6.r.9.z x 6., / } { ! o & * c 0.0.9.5.0.r.x 6.4.z 4.x x x 5.9.r.9.r.r.6.p.6.r.r.6.i.r.z 9.9.z 9.y.9.0.y.y.y.",
"y.i.y.0.9.s.r.6.r.5.r.q.< : : : : ; N 9.r.0.r.0.0.y.6.x 5.r.5.9.0.9.5.5.6.y.r.9.x 0.r.6.r.y.y.i.r.6.y.0.9.y.i.y.y.y.y.y.",
"y.0.y.y.y.i.r.9.9.5.9.p.q.5.5.q.5.c 6.5.5.9.r.r.y.y.y.y.y.i.y.5.5.5.0.0.9.0.d.6.x r.x 6.y.y.y.i.y.r.r.y.y.i.r.r.y.y.y.y.",
"r.x 9.y.y.i.9.0.0.9.5.5.0.9.y.y.5.5.9.y.y.i.6.4.r.i.i.i.y.0.9.9.0.r.5.5.0.i.r.5.r.y.6.z 9.y.y.y.r.9.9.r.i.r.x 0.i.y.y.y.",
"r.x 9.0.y.r.6.y.9.4.6.6.9.9.y.i.y.0.y.r.0.i.6.5.9.r.0.9.9.6.9.6.z 9.y.y.i.r.9.9.9.y.y.x 6.9.y.i.0.9.y.6.r.9.x 9.i.y.i.y.",
"r.5.i.0.0.9.5.s.6.x 6.9.0.9.y.y.5.x y.9.z 0.6.0.y.9.6.z l 5.9.9.x 9.0.y.i.6.r.0.5.6.5.x y.0.9.r.6.r.r.x 6.s.9.9.i.y.9.y.",
"y.9.9.i.0.6.0.0.x x 6.6.z r.y.9.q.x y.9.5.9.6.6.y.y.9.6.9.6.l k x i.0.0.0.6.i.9.x 6.9.9.9.i.0.4.4.r.4.x 6.r.r.r.y.9.6.5.",
"6.r.0.i.y.0.i.r.9.9.6.r.5.0.6.0.f.5.y.9.6.i.9.6.r.s.5.x 5.5.9.0.9.9.i.0.x 6.0.9.9.6.6.6.9.r.6.z 0.9.x 6.9.0.r.i.y.x r.r.",
"r.9.y.y.y.i.y.i.9.0.5.r.s.6.9.5.6.0.y.y.9.5.0.9.0.y.4.9.x 6.5.6.6.0.i.0.x r.5.9.i.0.9.0.y.r.x 0.9.r.r.9.r.0.9.9.p.5.4.y.",
"s.r.6.y.y.y.y.i.5.x 9.y.d.0.6.0.z 6.y.i.r.4.r.0.9.y.4.5.r.y.0.0.r.y.y.r.r.i.r.r.y.i.y.i.i.r.4.y.r.9.y.r.y.9.z 9.g.6.6.5.",
"i.i.r.0.4.x 9.y.5.9.9.0.y.r.5.f.5.r.6.y.0.5.i.9.z 0.y.y.9.y.i.i.y.0.9.y.y.y.i.y.y.y.5.r.y.y.0.6.s.0.x 9.9.z 5.y.9.0.y.r.",
"y.i.r.5.0.0.6.x x 0.p.9.0.5.0.y.5.y.r.9.9.6.y.5.5.5.4.5.0.y.y.i.r.6.r.6.9.9.y.y.y.y.x x r.y.y.r.i.0.5.y.6.5.y.y.r.y.i.i.",
"y.y.y.9.x z 5.y.y.6.0.s.5.z 0.5.9.5.s.r.5.y.9.l z 9.r.r.y.y.y.i.0.6.p.l 9.0.9.i.y.y.4.r.6.y.i.i.y.y.y.i.y.y.i.y.i.y.y.y."
};
