/* XPM */
static char *result[] = {
/* columns rows colors chars-per-pixel */
"60 60 187 2 ",
"   c #100F19",
".  c #111017",
"X  c #15151B",
"o  c #19161C",
"O  c #161C1C",
"+  c #1A1B1D",
"@  c #221E1E",
"#  c #17201B",
"$  c #19231C",
"%  c #1B2B1D",
"&  c #1C341D",
"*  c #1D3C1C",
"=  c #25211F",
"-  c #2C251F",
";  c #203E1D",
":  c #292622",
">  c #2D2B23",
",  c #342C22",
"<  c #3A2E22",
"1  c #353326",
"2  c #393627",
"3  c #3E3B29",
"4  c #443523",
"5  c #4D3B24",
"6  c #423E2A",
"7  c #543F26",
"8  c #1C421C",
"9  c #1E4A1C",
"0  c #1C5516",
"q  c #1D5C17",
"w  c #1F521B",
"e  c #1E5A19",
"r  c #21431E",
"t  c #214C1D",
"y  c #21541C",
"u  c #225A1C",
"i  c #1E6416",
"p  c #1D6D13",
"a  c #1F6218",
"s  c #1E7512",
"d  c #1F7C13",
"f  c #206C17",
"g  c #22641B",
"h  c #226C1A",
"j  c #207317",
"k  c #217B16",
"l  c #23741A",
"z  c #247C1A",
"x  c #307D1F",
"c  c #3D4F22",
"v  c #44412B",
"b  c #4D4A2E",
"n  c #5E4627",
"m  c #544429",
"M  c #514D2F",
"N  c #575226",
"B  c #514E32",
"V  c #524F3B",
"C  c #555532",
"Z  c #5E5933",
"A  c #654A28",
"S  c #6A4E29",
"D  c #6E512A",
"F  c #665F29",
"G  c #72532A",
"H  c #79572B",
"J  c #7A592C",
"K  c #4B6624",
"L  c #5B6327",
"P  c #666629",
"I  c #75662C",
"U  c #696437",
"Y  c #796736",
"T  c #76703C",
"R  c #79733C",
"E  c #484749",
"W  c #53524C",
"Q  c #535356",
"!  c #666457",
"~  c #747161",
"^  c #86612D",
"/  c #89632E",
"(  c #846F2D",
")  c #91682F",
"_  c #9A6F31",
"`  c #817A3E",
"'  c #A37432",
"]  c #AC7A34",
"[  c #1F8113",
"{  c #208514",
"}  c #218C14",
"|  c #24821A",
" . c #258B19",
".. c #229314",
"X. c #239C14",
"o. c #259318",
"O. c #279D19",
"+. c #25A415",
"@. c #26AD15",
"#. c #29A91A",
"$. c #26B115",
"%. c #28B417",
"&. c #28BA17",
"*. c #29B518",
"=. c #29B918",
"-. c #97813E",
";. c #B58035",
":. c #BB8536",
">. c #C38A37",
",. c #C68C38",
"<. c #CB8F38",
"1. c #CE9239",
"2. c #D4953A",
"3. c #DD9B3B",
"4. c #E29F3C",
"5. c #EAA43D",
"6. c #F5AB3F",
"7. c #FAAE3F",
"8. c #978F47",
"9. c #B89340",
"0. c #B7AE52",
"q. c #BCB353",
"w. c #8C8869",
"e. c #B0AA6A",
"r. c #CBA547",
"t. c #DAB44C",
"y. c #C5BB56",
"u. c #F1AB40",
"i. c #FBAF40",
"p. c #E5BD4F",
"a. c #FDB140",
"s. c #FBBF4A",
"d. c #CFC559",
"f. c #D6CB5B",
"g. c #D9CE5E",
"h. c #DDD15D",
"j. c #F2C34F",
"k. c #FBC44D",
"l. c #F6C953",
"z. c #FACB52",
"x. c #E3D75F",
"c. c #FAD257",
"v. c #F9D659",
"b. c #F9DB5C",
"n. c #DDD36C",
"m. c #E1D560",
"M. c #E6DA62",
"N. c #E9DD62",
"B. c #FADF60",
"V. c #E1D876",
"C. c #EEE164",
"Z. c #F1E464",
"A. c #F9E363",
"S. c #F6E966",
"D. c #F8EB67",
"F. c #F4E769",
"G. c #F8EB68",
"H. c #FDF06A",
"J. c #EDE275",
"K. c #F8ED73",
"L. c #F2E87E",
"P. c #F9EE7B",
"I. c #FCF077",
"U. c #EDE487",
"Y. c #F9EE82",
"T. c #FAEB8C",
"R. c #FAF18E",
"E. c #F7EA96",
"W. c #FAF193",
"Q. c #FBF39B",
"!. c #F3ECA4",
"~. c #FAF3A2",
"^. c #FBF4AE",
"/. c #FBF5B4",
"(. c #FCF6BB",
"). c #FCF6C1",
"_. c #FCF8CD",
"`. c #F7F4D5",
"'. c #FDFAD6",
"]. c #FDFADA",
"[. c #F4F3E7",
"{. c #FDFBE3",
"}. c #FEFCE9",
"|. c #FFFEF5",
" X c #F6F7F8",
".X c #F7F7F9",
"XX c #FEFEFD",
/* pixels */
"@.$.$.$.@.$...d s ..$.@.[ X.+.[ @.$.$.@.@.$.@.$.@.$.@.[ @.} +.X.[ $.+.s [ @.%...X.@.[ +.&.[ +.@.@.$.$.$.$.$.@.$.@.$.@.$.",
"$.@.@.+.$.$.+.+.@.@.$.@.+.} X.@.$.$.$.$.$.@.$.@.$.@.+.{ X.$.....[ @.} [ [ [ d ..@.@.@.[ @.$...@.$.@.$.+.$.@.$.@.$.@.$.@.",
"@.@.X.} +.@.{ { +.$.@.@.[ @.{ +.+.+.+.@.@.@.$.@.@.+.....{ @.$.{ @...d d X.+.[ X.@.%.X.s +.$.@.@.@.$...[ +.$.@.$.@.$.@.$.",
"$.+.{ @.d ..d d ..@.@.+.} &.{ } [ [ ..[ { @.+.$.@.[ @...+.X.@.{ +.[ O.@.$.} +.O.X.+.[ d +.$.@.$.$.$...s ..+.$.@.@.+.@.$.",
"@...X.$.s X.X...+...@.[ X.$.d [ X.X.X.d } @.} +.@...*.| { } *.z +.+...+.@.X.$...[ ..&.[ +.$.$.$.$.$.....+...+.$.@.d ..@.",
"+.d +.X...@...} @.+.} } +.X.[ ..{ [ ..X.[ @.@.....@. .& = * & % r ..@.....+.+.[ d +.+...@.$.+.X.@.$.+.[ +.X...+.$.d { ..",
"[ X.X.[ @.[ X.X.X.&.X.+.@...+.s ..@.$.$.+.X.&...d +.p o + > : o # { %.X.d X.[ d +.@...+.@.$.+.s X.@.$.+.d +...X.X.s ..X.",
"..X.+.} } X.@.@.@.$.@.$.$.$.+.d X...$.+.X.$.$.X.[ +.| O 2 y.0.: % +.%.+.X.@.X.+.$.@.$.$.@.$.+.d ..X.$.+.[ $...d { ..X.X.",
"%.X.@.+.X.@.$.@.@.@.$.@.$.$.+.[ $.X...X.{ %.+.X.[ { z # 3 C.g.> %  .{ } X.@.$.$.@.$.@...@.@.+.k ..[ X...[ &.[ [ } ......",
"$.$.$.$.$.@.$.X.X.$.@.$.@.@.} ....+.s { +.X.s ..k % % X 3 N.f.> X % &  ...X.@.$.$.@.} X...@.@.{ d @.+.[ +.X.d d ......@.",
"$.@.@.@.@.@.$.} s X.$.@.@.} +...X.X.{ X...+...+.s o o > B J.n.6 > o # z [ X.X.X.@.@.{ &.{ X...$.[ $.@.+.$.+...X.+.$.@.@.",
"@.$.+.[ [ ..@.} ....X.$.+.{ &.} @.@.+.$.X...@.&.{ o v d.V.{.`.n.y.> $ } [ ..%...X.@.+.$.d [ +.$.[ @.@.$.@.@.$.$.$.@.@.$.",
"$.+.} X.X.} [ s ..$...X.} X.$.[ +.@.X.[ ..X...+.f X v J.W.XX}.I.h.1 # } X.{ X.%.} { +.{ d X.+.} +.$.$.@...X.$.@.@.[ +.$.",
"$.@.X.[ d } +.+...X.$.} s X.[ @.{ X.{ { X.+.g % $ . E [.|.XX}.I.h.1 X $ & ..@.$.{ ..+.[ X.+.{ +.@.$.$...X.X.X.@.$.[ +.$.",
"@.$.@.+.+...[ [ ..[ X.} ..+.} &.d d s } @.X.i X = 2 !  XXX}.'.K.m.B 1 + $ ..$.@.+.@.$.@.@.X.[ #.} @.@...+.+.} } &.{ +.$.",
"$.@.@.+.$.@.+.+.@.} s ..+.[ X.+.{ ..{ +.....q X b h.U.|.}.Y.K.G.A.N.d.1 $ ..$.@.[ X.$.@.+.d { @.@.} +.+.@.[ s X.%.} +.$.",
"$.@.X.{ +.$.@.@.+.{ X.X.X.[ +.[ +.X.[ @.+...j X B L.Q.XX}.K.D.D.G.G.M.2 o l O.} s ..@.$.X.} &.} %.+.s ....s ..@.} +.@.$.",
"$.+.[ ..{ @.$.@.{ s ..$...X.+.[ ..} X...&.+.f X Q [.|.XX}.K.G.G.G.G.m.1 X $ % O...k X.+.[ +.@.@.@...} @.....$.@.@.@.@.@.",
"$.+.[ +.{ +.+...d ....+.&...@.+.} @.+.....X.x v ~ .XXX{._.K.G.D.G.G.N.Z 6 @ + | z  .z } { X.{ +.....$.$.@.@.$.$.$.@.@.$.",
"$.+.{ X.X.{ ..$.X...$.$.$.@.$.$.$.$.| $ # # C x.U.XX{.P.K.G.D.D.G.G.G.Z.g.2 X O $ $ $ j X.@.{ ....@.$.$.+.+.$.$.@.$.$.@.",
"@.$.X.[ *.{ z o.z | .. ...o.o.o...o.h o : 6 R S.R.XX].K.D.D.G.G.G.G.G.G.N.U 6 = o X O j k  .{ j } o.o.} k { +.$.$.$.$.@.",
"$.$.+.X.=.*.t o O # # O O + + + O + X . Z N.Z.D.R.XX{.K.D.D.G.G.G.G.G.G.G.N.m.6 . X X X O O O O O # O O o 9 ..X.} ..+.$.",
"@.@.$.$.o. .r o < m M M M M M B V Q Q Q w.R.R.R.Q.'.).K.G.G.G.D.G.G.G.G.G.G.Z.T B W Q V M M M M B m m 7 m c h { ..X...@.",
"@.@...@.y + o . _ u.l.Z.Z.Z.N.Z.!..X.X.X.XXXXXXX].K.G.G.G.G.G.G.G.G.G.G.G.G.G.Z.F.`. XE.Z.Z.Z.C.C.j.6.6.7./ o y } ..X.+.",
"$.+.s ..9 o 4 7 :.7.c.G.P.W.P.G.W.'.'.'.'.'.'.'.(.F.D.G.G.G.G.D.G.G.S.G.G.G.G.G.K.(.'.^.W.W.W.K.G.l.7.4.>.D o y ....@.$.",
"$.X.d X.* o ] 7.i.i.c.G./.XX/.G.G.K.G.K.K.G.K.K.K.G.G.G.G.G.G.G.G.D.G.G.G.G.G.G.G.G.G._.XXXXXX~.D.z.7./ + + o g $.$.@.$.",
"$.X.[ @.g * ( >.5.i.z.b.Q.].~.G.G.G.G.G.D.D.D.G.D.G.G.D.G.D.G.G.G.G.G.D.G.G.D.G.G.G.G.(.'.'.'.T.v.k.7.^ o % 8 l $.@.$.$.",
"$.@.X...$.X.; o ' a.a.a.c.G.G.G.G.G.D.G.D.D.G.G.D.D.G.G.G.G.G.G.G.G.G.G.G.G.G.G.G.G.G.G.G.G.K.k.7.7.a./ X g @.@.@.} +.$.",
"$.@.@.....#.h ; I ] 4.a.k.b.A.G.G.G.G.G.G.D.G.G.G.G.G.G.G.G.D.G.G.G.G.G.G.G.G.G.G.G.G.G.G.B.B.s.i.2.;.F ; z $.@.{ @.{ +.",
"@.$.X.} +.} @.{ ; o ' a.7.7.c.G.G.G.G.G.G.G.G.G.S.G.G.G.G.G.G.G.D.G.G.G.G.G.G.G.G.G.G.G.G.k.i.i.a.J o h O...@.@.[ @.[ +.",
"$.@.X...@.[ ..k u 9 I ] 2.7.z.D.S.G.G.G.G.G.G.G.G.G.G.D.G.G.G.G.G.G.D.G.G.G.G.G.G.b.v.v.v.s.i.<.] P 8 z %.X...[ p d d +.",
"+.+.{ @.X.s } +.@.X.t + ) a.c.G.G.G.G.G.G.G.D.G.G.G.G.G.G.D.G.G.G.G.G.G.G.G.G.G.S.s.i.i.a.a.a.G X y ..X.+.&.} s s +.} +.",
"} ..} +.} d ..d d X.k 0 P ' r.c.A.D.G.G.G.G.G.G.G.D.G.G.G.G.G.G.G.G.G.G.G.G.G.G.D.s.i.i.a.>.' L 9 k X.+.X.@.[ ..} X.&.&.",
"$...@.+.[ d X.X...$.$.$.h o / 7.z.G.D.G.G.G.G.D.G.G.G.G.D.G.G.G.D.G.G.G.G.G.G.G.D.k.a.a.a.S o j } s s [ [ X...X.$.} @.&.",
"@.@.@.@.@.@.$.$.+.+.$.$. .e P ' r.G.G.G.D.G.G.G.G.G.G.S.G.G.G.G.G.G.D.G.D.S.G.G.A.9.' ' ' K 8 s { { ..X.@.@.@.@.$.@.@.$.",
"$.$.@.$.$.$.$.$.} [ +.$.@.$.g . R H.G.G.G.G.G.G.G.G.G.G.G.G.G.G.G.G.G.G.G.G.G.G.Z.B   o O | d [ ..+...X.@.$.$.@.@.$.@.@.",
"@.$.$.@.} } X.$.{ { ..+.@.@.w X M 8.q.G.G.G.G.G.G.G.G.G.G.G.G.G.D.S.G.D.G.G.D.G.S.-.H , X h d } { p { $.+.X.$.@.$.@.$.@.",
"$.$.+.} ..} } } d X.@...+...u o o . U D.D.D.G.G.D.G.G.G.G.D.G.S.G.G.G.G.G.G.G.G.S.s.i.n X i p s ..} { X...X.+.$.@.$.@.$.",
"$.@.+...} } } ......@.+.{ k g X v ` e./.Q.S.G.G.G.G.G.G.G.G.G.G.G.G.G.G.G.D.G.G.D.s.u.A O l d } } @.{ ..X.X...$.$.@.$.@.",
"$.$.$.+.....} } } ..@.$.{  .h . R G.~.XX_.G.G.G.G.G.G.D.G.G.D.G.G.G.G.G.G.G.G.G.D.s.i.n X a [ $.+...} } $.....$.@.$.@.$.",
"$.+...@.$.$.+.{ } ..+.@.X.@.u . R D.Q.XX_.G.G.G.G.G.G.G.G.G.G.G.G.G.G.D.G.G.G.G.D.s.u.n o l X...$.X.d } X...+.$.$.@.$.@.",
"$.X.s } @.@.@.} #.....@.$.@.y . R G.~.XX'.G.G.G.G.G.G.G.G.G.G.G.G.G.G.G.G.G.G.G.D.s.i.n o u ..X.} X.k +.[ ..$.$.@.$.@.$.",
"$.+.k X...@...} ..s s [ +.+.y . R G.~.XX_.G.G.G.G.G.G.G.G.G.A.z.z.z.c.D.G.G.G.G.D.s.i.n X g } *.s ..X.} @.@.@.@.@.@.$.@.",
"@.+.{ $.+.....s X.} } k s d t o R G.~.XX_.G.G.G.G.G.G.G.G.H.A.a.7.7.a.A.G.G.G.G.S.s.i.n X g @.+.[ @.X.s ..$.@.@.[ +.$.@.",
"$.@.X.{ @.+.} { #...d +.{ X.h X R D.Y.^.W.G.D.D.G.G.A.z.p.8.` 6.7.7.s.k.z.z.z.z.z.a.7.n X * u j +.X.s ..X.X.@.@.[ X.$.$.",
"@.$.X.s } @.} } $.{ ..@.{ d y X R G.D.D.G.D.D.D.G.G.A.a.2.= < 4.7.7.7.7.7.7.7.7.a.a.6.n X X X g X.} ..X.+.{ } %...X.$.$.",
"$.@.X.{ @.} } ..} p } } X.@.g X R D.G.G.A.z.z.z.t.R R J D + = D J J / 5.a.a.a.a.a.a.a.:._ 4 + l ..X.+.@.} s X.$.[ +.$.@.",
"@.$.@.[ +.@...+...s k ..@.$.g X R G.G.G.v.7.7.7.>.@ . X X o X o X X - 4.7.a.a.u.a.a.a.a.a.S o | @.s ....s ..@...+.$.@.$.",
"$.$.$.X...$.@.} +.{ +.X.X.+.y o Y k.k.l.s.a.2.H n + % q i s a i q # @ A G G H 3.7.a.a.a.a.S X | +...@.X...@.$.@.@.$.@.$.",
"@.X.@.@.$.$.+.....} ..$.X...y X J i.a.i.7.7.:.+ X o * @.$.@.@.} d % + X X . @ <.a.7.7.a.7.S X z $.+.+.@.@.$.+.+.@.$.$.@.",
"+.d ..@.$.$.} X.X...{ [ z 8 P ] 1.a.,.D S D N u j z  .@.@.........k f h h % o n D A D 1.a.S X z #.....+.@.+.d X.$.@.$.@.",
"X.d ..X.$.+.} @...[ ....u o / a.i.a.' o X X & { ..+.X.....} ..} s X.$.$.@.* X X X X + ;.a.A X z X...@.} +...[ ..$.@.$.@.",
"+.[ $.X.X...[ $.} d ....k j K A A A K h 0 f j X.@...[ s p ......d ..X.@.@.s j h i & o 5 A , X l ..+.+.d [ %...X.$.@...@.",
"@.....$.X.} X.X.d d } } d +.j X O o w X.[ X.} } +.@.......[ p p d $...X.X.} *...k * + X X o $ u [ +.[ d ..+.+.+.$...} } ",
"} +.X.$.$.X.$.+.....} +.{ X.{ k  .a o.X.} $...} +.$.[ [ [ [ X.X.X...%.X.s } X.....h q a z | q p X.X.d [ ..X.+.@.@.d X.@.",
"+...$.$.$.$.$.$...X.{ +.&.} ..{ [ X.@.@.} } X...X.$.[ ..[ ..[ [ } X.%.X.d +.} ..$.X.X.X.@.+.[ +...+.+...+.X.....%.[ [ @.",
"%.+...@.$.@.$.@.[ s ..$.&.X.} X.d } @.$.@.[ +.X.} @.[ [ @.@.X.X.+.$.@.+.+.$.+.#.@.$.@.$.$.+.[ %.+...#.+.$.} d ..&.[ ..[ ",
"@.$.+.X.[ d ..@.} ....X.@.+.{ &.[ +.[ @.X.} $...d X.@.#...+.$.$.@.X...@.$.@.$.$.@.@.[ +.@.@.X.[ $.+.d ..X.d [ $...X.$.+.",
"$.$.+.} ..X.} d d ..$...X.{ X.@.} $.@.....} %.[ [ [ d [ X.@.$.$.+.} +.} ....@.$.@.@.[ [ +.@.@.+.@.X.[ @.} [ @.@.+.@.$.$.",
"@.$.$...d d } +.@.} +.%.{ s +.{ ..[ *.+.[ @...p d ..+.+.@.$.$.%.X.} $.p ..X...$.@.@.[ +.{ @.$.$.@.@.@.$.+.@.$.@.$.$.@.$."
};
