/* XPM */
static char *_1e5184e8825482ea9ceb900fd230761uJ5Xkfx4rgqF9YEG[] = {
/* columns rows colors chars-per-pixel */
"60 60 28 1 ",
"  c #1C6C12",
". c #1E7512",
"X c #1F7C13",
"o c #1F8113",
"O c #208513",
"+ c #218C14",
"@ c #229314",
"# c #249716",
"$ c #239814",
"% c #239914",
"& c #249B15",
"* c #239C14",
"= c #249E15",
"- c #24A214",
"; c #25A615",
": c #25A915",
"> c #26AF15",
", c #28AF17",
"< c #26B015",
"1 c #27B416",
"2 c #28B017",
"3 c #28B416",
"4 c #28B916",
"5 c #29BC17",
"6 c #28B018",
"7 c #29B718",
"8 c #29B818",
"9 c #29BC18",
/* pixels */
">>><><%..%<>O%;O:>>>>>>>>>>o>+=-X<-.O:3@%>O=4+->>>><>>>>>>>>",
">>>;><;-:>>>=+*:><<><>>>>>-O=<@%O:+X+oX%>>;o:<+>>>::<>>>>>>>",
">>%+;:OO:<>>O>O;-*-:;><>>;+%O><O;%XX@-+%:>=X;<>>><%O;<>>><>>",
"<-+>X%XX@:>-+7O@OO@O+:;<>O:@=-:o=O*>>+-&%-+X;<>>><%X@;<>>->>",
":%%2.==%;@;o=<XO%-=X+:@;<@3OO@8O:;@-<%>%O+8O-<><><@@:@;<>X@>",
"-X;%%:@+>;@O-%O@OO@=O::@%;-.O:-@;->@%-;XX-;+:<:*><=O=&@;>X+@",
"+@%o;+%**4&->%-X@>><-%4@X-XO::%>;%1=.*OX->%;><-.%><=X-%%%.@&",
"%%;++%>>>>>>><;X@%>-%<<*+-%;<:%>%><-*<*-<>><><-X%%<-+<@X+@&&",
"3%>;%>>>>>>>><;o<=%%O<==OX;<<;O7O-OO%><>>>>%:<-X@+%++1+o++%@",
"><>><><%*>>>>:++@;.O=*.@O+@;>+%2.O%=%%>>>>@=%::Oo:%+-%.X@@%:",
">>>>>><+.*>>>+=@%*O&%-%;O=>@=X:;X+O+X%-*>>O7+*%>O<>-<-%%:<<>",
">>-Oo@>O+%*>:O7O::;<&%><-O:>+%;o.O%%O@<@*>-2Xo-2O>><>><<>>>>",
"<;O%%+oX%2@*O%<O;>=o%&%>@@:1;>>=*-<<:+=3+X-O.%-+->>>%%>>>O;<",
">>%oXO=;+*2+.=+;+%OO&;+@=@=:::><<<>><::<+@:o%;O-:><%%&=>>o-<",
">>>;;%oo%O%O%-O8X..+:%OO>@@OXO;>>>>>:<>>-:>:>*O>+:<@;=++7+-<",
">>>:<>;;>OX%:O-:O%O;@@.+3+X%;;O:>>>%@:<:O*<<:XO::+;;>+.%3+-<",
">>%O;><<:o=%%O=o-%O>;+O%:XOOooX-><%@-%:@.@>>*+6@<-.%@.%>@=>>",
"<-o%O><;O.%3%%;O%+*@3-%>@Xo-:>;+-<*-;O+,+X%;o-:>:@+>%%>>>>>>",
"<-o=O;;%X@@-4@;;+:>><>><-;>>>=-<@%-:+.%>@:%@O=o;@@>>>>>>>>>>",
"<;O-%X+>&@>>>>>>>>>>><>-O@:<:X@<:.@%.%>%=-<%%;O@@>><-;<>>>>>",
"><*O>OO:%=<>>>><>>><;=<O@O%>%@9=-@>=%>>>>@;3%;%@>>>-@@;<<<>>",
"><;%5>%+@<><<>:%>><;@@-O@%+;X-%@><<<<>><>>><<;X%>><+=&@*+@:<",
">><>><-%@-%O+:;X@><%%;+*+;oO@-X:<;++*<<%-<>@+O.@%>-+>%X+@%@:",
"<;%>><+=&X%XOOO.%%-+;=+<O->X->%>;+@@+OO%@OO+%%o<&%@O1+o++%%:",
"<-.@>=O>%o<Oo@@X>=XO-+->=:4O-<<;++OO+%o:@ %++@@%<&O-%.X@@%:<",
"<-X&%@O*@;%@%OO.+-X-%.%><>@=%::oX% X+O@2++<o+%:*<>-<-%%:<<>>",
"<-O<=+;++%@:>X&X%;=>:%+%>>O7+%@-o%O=+o@%@;@%><><>>>><<<>>>>>",
">>%+<=%+.@:<;O7O*Oo+>>>%%:;<XX-2O%O<=+;O%+%>>>>>><%@>>>>:+->",
">>:@@::+@%%>O*<Xo%:=@%%3@X-O.*:+-:%%3&%:O%>>>><>><%.%>>>+;+;",
"><-+-+>O+3%%O--X@oo+:;;<+@:X%::-><::<>::;>>>>>>>:<@+=%>:o>O-",
"<>%%>o@XX%2@*-o O;;:<%%@@>>o>+%+-:<>>>:+%>>>><>%O-@+2=%O X.-",
";-o>-.O-:@->:o%O*><<:+. %<-+8XO:.X;<><+-@*<>>;;O@X+&=4+..;@;",
"+%O:+X@XX%>>>O%-o:><%OO.@:O%;O;-X.+;<;o:@%<>=+==O%*--:O@O%44",
"2+:-oX==%>>>>;o>@=>:+%+%-@O=o-%+%O-X;+ ++-<:O2O;+ .oo%@=>+:5",
">>>>>>>>-;<>>:+-4@>-%>%+<=@;+@+:;O%Xoo O%:>%+7X+O+@->>>>>>><",
">>>><<<<Oo;<>>%@=>>>><-+-4%;:X;<<%@: XX=-@;X;>.O%-%%<<>>>>>>",
">><;@+=<OO@;<:O7+:>><-@@-<>>:X+>:+-;.:%o>-@+;+.+o O<=-<>>>>>",
">>;+++++X=:@;%%3X@>><+%%@<>>:X@%%o;@*-++;4%:>O .@+O-@%;>>>>>",
">>:+OO+%%+::+.-%O.@><@@+@<><:o>=+%%O=+-<>%O+:;X++>O+==%<>>>>",
">>>:%%+++@;1o+-X%X%%*+-OXOOOO+@<=O@%O->>%+@@OoX<-@+O>%@<>>>>",
"<;+><<;X+%->=;+%=O<=XO%+%%%X o%><O@:O%OO+OOO%=%@<=XO*+;>>>>>",
">-.+>>>+;%%>>:.O;%@*O=XXooO%X=@:<:>-.+=:@@%%OO+-@%X;+@<>>>>>",
"<-O-@>%O@XXX-;X-+;-%&;O=**%;o;<>>><%o+O-::>>-@+7.@=@;:>>>>>>",
"<-O<-@@.=+OX.XX::+%O:&@<<:+=-O><><=+@@-:>:+-:O;;o:&.%>>>O-<>",
">>%O<-+O:%X;O%-+::...O:>>O;+--;:>;;:::<5%-2@%X-O;%.@=%:>O*<>",
"><=.+:++>+@>OXO%+%O@.+:<:O7+%Oo+%OO><<>:3<:2+X>+%+@--O+2+*<>",
"><*O;@+%+ ++=:-O>O;+O=@:O%3oX%;-O=O::::@-;+-<O;>+*;>+.%2+-<>",
"><-O:;+;@.X%:>*+7X@oO&&@O*-X+o.oXXXO%;@;-+2+;;+<;.@@.%>@=>>>",
"><>=@3;+;O-=%;X;:.O%;%-=%>+XO-O%%@OO+>-@X%;+;>><-+>%%><>>>>>",
":=>>><;@@O@3=@O;@.+OO%-;>>>>><:OOO%=@%4+X-X+>>>>>;->><-;>>>>",
"-X%>><@=&@OO=@::OO@>><+o;<<<>%@@%-OO%<-O->+.@>>>;%%-<-X%<>>>",
"-X@%>-+>%o++%%:<:%>;*<+O@;%@@+@+.%>><-@%@;>X+%><%@:+-%X%<><>",
"-O<%%@O1+X+@&@::OX>%.*+%:@O. O%@X%%><+;&O+OX>=%;+-;X+3%%<>%:",
":@%<%+=*XX++.-:@#X>%O%++::@+@+  X<%%=+<@X+%%@<=oo;oX+;-;>@+O",
"+;*<>=<-@@+;O*+=7O>%+<%+;1OXOO%=%%<%X+*@%O++%;+.%%X+%%-<>X-;",
"-@>>><><%*O;3+@O+*>:@O=%*>o%X+O++*<%X;O%<=%%>;X=@;-@-=@%2Oo>",
"3;+>>>><OX@>4=+=.O:<;o-&@>oO;>*%->>;;<;;>>>><;o>-@>;>@.%8++O",
"<<-*oX@:O%%=>;O7O-+>%O<@.*::@:<<>=@>>><>>>O->>%+1=X%%.O:@%:-",
"><;O%%+XX%2@%O=>O>;@@+>OOOoO*>><-+-+%%>>>>XX->>;<=O:+O:>;><<",
">>>%X.O:>+=3O.=O%O3-O:@ .%-->>><*+6 %%%<>>o-+:<<>::<::<><>>>"
};
