/* XPM */
static char *d6872d5093c1401ad74a400a097e8df0iR3bTsLIFVyc3XSw[] = {
/* columns rows colors chars-per-pixel */
"60 60 220 2 ",
"   c #070A04",
".  c #0A0C0A",
"X  c #0B1609",
"o  c #0C1B09",
"O  c #101B0E",
"+  c #151B14",
"@  c #181C17",
"#  c #1B1D1B",
"$  c #211611",
"%  c #0A2A05",
"&  c #0E230A",
"*  c #0F2D0A",
"=  c #112B0D",
"-  c #0C3406",
";  c #0D3B07",
":  c #0F3309",
">  c #13330D",
",  c #123C0B",
"<  c #1A2617",
"1  c #183713",
"2  c #32241C",
"3  c #21391D",
"4  c #1D1523",
"5  c #232522",
"6  c #252924",
"7  c #2C2B2C",
"8  c #33282B",
"9  c #2C342A",
"0  c #30372E",
"q  c #333233",
"w  c #383734",
"e  c #3C3C3C",
"r  c #4F382A",
"t  c #413336",
"y  c #573F31",
"u  c #0F4707",
"i  c #14430C",
"p  c #144C0C",
"a  c #14520B",
"s  c #18590E",
"d  c #1A4712",
"f  c #1C5513",
"g  c #1C5B12",
"h  c #22471C",
"j  c #205618",
"k  c #235B1A",
"l  c #17650C",
"z  c #19640E",
"x  c #1A6B0F",
"c  c #1A720E",
"v  c #1C7F0E",
"b  c #1D6412",
"n  c #1D6D12",
"m  c #1E7412",
"M  c #1F7C13",
"N  c #24681A",
"B  c #227317",
"V  c #217C15",
"C  c #2E4F29",
"Z  c #275220",
"A  c #295D20",
"S  c #3A4537",
"D  c #3A5635",
"F  c #2D6924",
"G  c #336C2B",
"H  c #3A6133",
"J  c #3E6239",
"K  c #3B7F3B",
"L  c #445C3F",
"P  c #6F513C",
"I  c #70523D",
"U  c #3D2558",
"Y  c #4E3D42",
"T  c #4B3662",
"R  c #444344",
"E  c #464A45",
"W  c #4A4749",
"Q  c #4C4C4C",
"!  c #53494F",
"~  c #4B5649",
"^  c #525152",
"/  c #5A575A",
"(  c #5A5A5A",
")  c #6F4C50",
"_  c #625D5E",
"`  c #476543",
"'  c #487A4D",
"]  c #5B6659",
"[  c #4C715D",
"{  c #62755F",
"}  c #7E5978",
"|  c #616261",
" . c #68676A",
".. c #6B6B6B",
"X. c #736864",
"o. c #69736A",
"O. c #746E71",
"+. c #747374",
"@. c #757B74",
"#. c #787778",
"$. c #7A7B7A",
"%. c #815E47",
"&. c #885867",
"*. c #857175",
"=. c #1D830E",
"-. c #1F8113",
";. c #1F8911",
":. c #20960E",
">. c #208513",
",. c #218C14",
"<. c #229314",
"1. c #249C14",
"2. c #25A315",
"3. c #26AD15",
"4. c #29AC19",
"5. c #26B115",
"6. c #28B417",
"7. c #28BA17",
"8. c #29B518",
"9. c #29BA18",
"0. c #2E8C27",
"q. c #459747",
"w. c #548664",
"e. c #C8936D",
"r. c #D29A72",
"t. c #DEA377",
"y. c #E0A478",
"u. c #726F92",
"i. c #7E5DAF",
"p. c #8C7B82",
"a. c #B07C8C",
"s. c #8772AD",
"d. c #AA66AF",
"f. c #C07D92",
"g. c #8B4DC4",
"h. c #9558D2",
"j. c #996CC8",
"k. c #9C63D4",
"l. c #9D62D9",
"z. c #A17BC7",
"x. c #B977CE",
"c. c #A26ADA",
"v. c #AA78D8",
"b. c #AC77E1",
"n. c #AF79E2",
"m. c #B27DE6",
"M. c #74848D",
"N. c #828382",
"B. c #8B8C86",
"V. c #8C8C8C",
"C. c #8F928E",
"Z. c #939393",
"A. c #979794",
"S. c #9C9C9C",
"D. c #B48B8F",
"F. c #9EA29E",
"G. c #948FA5",
"H. c #AD95A3",
"J. c #A4A4A4",
"K. c #A7AAA6",
"L. c #ACACAC",
"P. c #B3B3B3",
"I. c #B8B6B7",
"U. c #BBBBBB",
"Y. c #CF9C9D",
"T. c #D08EA2",
"R. c #E297AD",
"E. c #EE9AB4",
"W. c #C4B5BA",
"Q. c #E9A5BA",
"!. c #F7A3BD",
"~. c #EEB1B1",
"^. c #FBBAB9",
"/. c #AE83D6",
"(. c #B888DA",
"). c #BD99DF",
"_. c #B483E3",
"`. c #BA8AE8",
"'. c #BE93E7",
"]. c #C285D5",
"[. c #EBA9C7",
"{. c #F8ACC4",
"}. c #FBB4CA",
"|. c #FBBACE",
" X c #C195EB",
".X c #C699F2",
"XX c #D1B4EC",
"oX c #CEA4F7",
"OX c #D4ACFC",
"+X c #D7B0FE",
"@X c #D9B5FA",
"#X c #C3C3C3",
"$X c #C8C6C8",
"%X c #CCCCCC",
"&X c #D5C6C9",
"*X c #D0CFD0",
"=X c #D4D4D4",
"-X c #D8D6DA",
";X c #DCDCDC",
":X c #E7C4CA",
">X c #F8CACC",
",X c #FAC7D8",
"<X c #DCCAED",
"1X c #E0DDE1",
"2X c #FCD4E2",
"3X c #F7DDE6",
"4X c #E9CFFF",
"5X c #E7DBF2",
"6X c #E3E3E3",
"7X c #E8E7E8",
"8X c #ECECEC",
"9X c #FCE3E2",
"0X c #F8E6EB",
"qX c #EEE5F5",
"wX c #F8ECF4",
"eX c #EFF0F0",
"rX c #F4F4F4",
"tX c #FBF6F7",
"yX c #FDFDFD",
"uX c white",
/* pixels */
"3.3.3.5.3.5.<.m m 1.5.3.>.1.2.>.3.5.3.3.3.3.3.3.3.3.3.-.3.,.1.2.M 5.2.m >.3.6.<.1.3.>.1.7.,.2.3.3.3.3.5.3.3.3.3.3.3.3.3.",
"3.3.3.2.3.5.2.2.3.3.3.3.1.,.1.1.1.1.3.5.5.3.3.3.3.3.2.>.1.5.<.<.>.3.,.M ,.-.M <.3.3.2.-.3.5.,.3.3.3.3.3.5.3.3.3.3.3.3.3.",
"3.3.1.,.2.3.>.>.3.5.3.3.>.4.g o & & >.3.2.3.5.3.3.2.,.<.>.3.5.>.2.<.M M <.2.,.<.3.3.1.M 2.5.3.3.3.5.<.>.2.5.3.3.3.5.3.3.",
"5.2.,.3.M <.M M <.3.3.2.,.z ] P.P.L.D % s 3.2.5.3.>.3.<.1.2.3.-.1.>.1.3.3.,.2.1.1.>.= = <.5.3.3.3.5.<.M <.2.5.3.3.2.3.3.",
"3.<.1.5.m 1.1.<.2.<.2.-.1.; +.uXuXuXJ.p.{ b ,.2.5.<.6.>.>.<.9.>.3.2.<.2.5.1.3.<.>.>.b d f ,.5.5.3.5.<.<.3.<.2.5.3.M <.3.",
"2.M 2.<.<.3.<.,.3.2.<.>.2.- +.uXuXuXuXuX$X~ B >.<.2.2.m >.3.2.<.2.2.3.<.<.2.2.M b m ,.,.f M 3.1.3.5.1.>.1.1.<.2.3.M ,.<.",
",.<.1.-.2.,.1.1.1.7.1.2.3.- +.uXuXuXuXuXuX-XS N M 2.M >.3.3.<.3.2.<.6.1.m 1.>.M g & > ,.3.3.2.m <.3.5.1.M 2.<.<.1.m <.1.",
"1.<.2.,.,.1.3.3.3.3.3.3.3.u +.tXuXuXuXuXuXuX;XE g 2.1.2.5.3.1.3.1.3.5.2.1.5.1.2.3.2.,.> ,.5.2.V <.1.5.2.,.5.<.M ,.<.1.1.",
"6.1.3.2.1.3.3.3.5.3.3.3.3.1.F O.tXuXuXuXuXuXuX%X] p 2.5.5.2.>.8.>.2.>.,.1.5.5.5.5.5.2.m 1.5.2.M <.,.1.,.,.6.,.-.,.,.<.<.",
"3.5.3.3.5.3.5.1.1.3.3.3.3.3.u e rXuX0X,X3XuXuXuX .; <.2.3.,.1.5.m >.1.n , p p p p m <.2.<.3.3.>.-.3.1.,.2.1.m M <.<.<.3.",
"3.3.3.3.3.3.5.,.m 1.3.3.3.<.a R tXuX2X{.{.9XuXuXF.` V ,.1.M 3.2.M ,.m H / / / / / ` f M M 1.<.3.>.5.3.2.5.2.<.1.3.5.5.3.",
"3.3.2.>.-.<.3.>.,.<.1.3.2.>.c S %XrX2X{.!.Q.*XrXuXF.* 2.,.1.2.-.m B C Z.uXuXuXuXuXI.q 9 j M 2.5.>.3.3.5.3.3.5.5.3.3.3.3.",
"5.2.>.1.1.,.-.M <.6.<.1.>.1.3.g 9 ;X2X|.}.T.t U.uXJ.1 2.2.3.3.2.<.& F.tXuXuXuXuXuXtX8X6XE b 2.,.2.3.3.3.<.1.3.3.3.>.2.5.",
"3.3.1.-.M >.1.2.<.1.6.,.m 1.,.-.< -XtX2X}.E.f.! K.rXK.1 ,.3.3.5.2.& L.uXuXuXuXuXuXuXuXuX-X] p 2.3.3.5.<.1.1.1.3.3.-.2.5.",
"3.3.3.2.2.<.-.-.<.>.1.>.1.2.,.3.j ] =X3X|.{.E.8 V.uX*X+ z ;.2.<.j B.;XuXuXuXuXuXuXuXuXuXuX$X{ a ,.3.5.<.2.1.,.,.8.,.2.5.",
"3.3.3.3.5.3.2.2.3.>.M <.3.>.2.3.m X I.tX2X|.E.&.O.U.-XT [ w.K =.@ -XuXuX;XJ.rXuXuXuXuXuXuXuX$X] b >.2.2.3.,.m 1.6.,.2.5.",
"5.3.1.>.2.5.5.5.3.-.2.1.<.>.1.>.<.> C.7XwX|.{.!.) ^ XXc.l.l.u.K Q 1X-X1XW.Y P.rXuXuXuXuXuXuXuX%X+ >.M <.<.m <.3.<.1.3.3.",
"5.2.-.<.>.3.5.2.>.m <.6.<.<.2.>.<.>.d N.3X,X|.!.) U c.oXOXOX_.z.8X7X_ *.|.T.w L.rXuXuXuXuXuXuX%X6 B ,.3.<.<.3.3.3.3.3.3.",
"5.2.-.1.>.2.2.<.M <.<.2.7.<.3.2.,.3.1.A ..0X,X!.d.j.oXOX+X+X_.v.6XQ p.Q.[.&XK.W A.uXuXuXuXuXuXrX%X0 M 5.3.3.3.3.3.3.3.3.",
"5.2.>.2.1.M ,.3.1.<.3.3.3.3.3.3.3.3.5.:.' /.x.[.x.h.n.OX+X_.n.`.z.4 D.>X&XU./ A D V.uXuXuXuXuXuX8Xq c 5.2.2.5.3.3.3.3.3.",
"3.5.1.>.3.>.>.3.<.1.5.3.3.3.3.5.3.3.q.w.M.b.n.].(._._._.OX'. X.Xg.} T.:XP.o.k 1.-.H N.V.7XuXuXuX8Xq c 2.<.<.2.5.5.5.3.3.",
"5.5.2.1.7.3.1.,.<.5.5.5.5.3.3.1.4.q.s.c.m.+XOXl.'.4X@Xh._..X.X`.v.H.R.[.Z.o V 2.5.,.: 1 A.I.I.I.L.C >.<.1.1.<.1.,.<.3.5.",
"3.3.5.3.3.5.2.<.<.2.1.>.,.3.2.M 0.i. XOXoX+XOXc.`.@XoXk.k.k.k.(.1XW a.:XS.6 6 B 2.5.3.,.1 O O O = <.2.,.3.<.M ,.<.1.<.3.",
"5.2.<.3.3.5.,.1.1.M <.M >.>.>.m 0.i. X_.v.OXOXoXv.h.v.5XqXqXqXwXtX6X8XtXeX;X-XE f ,.>.,.<.,.m 1.<.<.<.>.6.,.-.,.,.<.<.3.",
"5.2.m <.3.1.>.3.<.-.5.>.-.<.<.M 8.q.s.m..X+XOXn. X<X5XuXuXuXuXuXuXuXuXuXuXuXuX%X] , <.,.,.<.<.<.6.1.>.2.1.m M <.<.<.3.5.",
"5.2.M 1.<.<.>.1.<.2.<.<.<.>.>.m ,.2.' G.m.n.n.).5X=X$.N.7XuXuXuXuXuXuXuXuXrXV.;X#X] n M ,.1.3.1.5.3.2.5.2.<.1.3.5.5.3.3.",
"5.2.>.5.1.,.2.,.,.<.<.3.3.M 1.M 1.2.v o.v././.qX=XB.Q ^ S.6XuXuXuXuXuXuX8XJ./ Z.6XL.o <.5.5.3.5.3.3.3.3.5.5.5.3.3.3.3.3.",
"3.3.<.,.5.1.<.,.m <.3.5.2.>.8.>.1.m 3 $.;XtXuXtX*.X.rX8X^ L.uXuXuXuXuXuX#XQ -X_ A.P.9 ,.<.2.3.3.3.5.1.<.3.3.3.3.3.,.2.3.",
"3.3.3.<.<.3.3.,.<.1.1.3.>.1.5.M m & N.#X=XrXrX>X~.~.>XtX8X8XtXuXuXrXuXuXrX6XtX:X~.>XI.< X c 5.3.3.5.<.m <.3.3.3.,.2.,.2.",
"3.5.2.,.2.,.3.>.,.6.<.1.>.2.2.M -.X Z.p.q e R Y.^.^.>XuXuXN.B.uX8X| #XuX%X( 7X>X^.D.w . z 1.5.3.3.5.<.,.1.<.3.3.-.3.>.2.",
"5.3.1.<.3.-.<.M M 1.5.<.1.2.-.s d o.I.L.V.Z.Z.:X9X9X9XuXuXI.$.....) X...#.S.rX0X9X&X$.O ,.6.3.1.>.2.<.,.5.1.<.>.n M m 2.",
"2.2.-.3.2.m >.2.3.<.2.3.3.-.1.s @ I.%X8X8XJ.K.8XuXuXuXuXuXuXZ.. y e.%.$ R tXuXuXuXuX-X+ s m -.>.<.M <.1.1.7.,.m m 2.<.2.",
",.<.>.3.,.M <.M M 1.3.3.3.>.1.=.# P.%X%XS.q e %XuXuXuXuXuXuXZ.2 r.t.t.P W tXuXuXuXuX;Xe . X s 2.>.1.1.2.1.3.>.<.>.1.7.7.",
"5.,.3.2.-.M 1.1.<.3.3.3.5.3.>.-.# P.=X+.| 8X8XtXuXuXuXuXuXuXZ.2 r.t.y.I R tXuXuXuXuXrX%Xq l >.2.,.n m -.-.1.<.1.3.,.3.7.",
"3.3.3.3.3.3.3.5.2.2.5.3.3.3.<.c # P.%X%X-XuXuXuXuXuXuXuXuXuXZ.2 r.t.t.I W tXuXuXuXuXtX-Xq l -.,.>.,.<.2.3.3.3.3.3.3.3.5.",
"3.3.3.3.5.5.5.5.>.-.2.5.3.3.1.x # I.%X;XrXuXuXuXuXuXuXuXuXuX-XB.y r r X.U.uXuXuXuXtX=X| F <.M >.<.2.1.1.5.5.3.3.3.3.3.3.",
"3.3.5.3.<.,.1.5.>.>.<.2.5.3.>.2.h o.I.-X6XrXuXuXuXuXuXuXuXuXuX;X+. . .P.uXuXuXuXtXrXU.+ =.<.m ,.-.n >.5.1.2.5.3.3.3.5.5.",
"3.3.2.,.,.,.,.,.M 1.3.<.2.<.<.8.n > @.I.=X6XrXrXrXrXtXuXuXuXuXuXuXuXuXuXuXuXtXtX*XL.A.h ,.,.n m <.,.>.2.<.<.2.3.3.3.3.5.",
"3.3.3.,.>.>.,.<.1.,.3.3.,.m 2.<.>.n 1 ..I.U.%X#XI.%X7XtXtXtXuXuXuXuXuXrX7X6X=X%Xo.O < V 3.2.M ,.,.3.>.,.1.1.<.5.3.3.5.5.",
"3.3.5.3.<.<.,.,.,.<.2.6.>.,.2.M 1.M ,.h 5 e P.Q # | %X-X-X;XrXuXuXuXuXS.7 7 6 6 Z >.,.<.>.-.M 5.2.<.,.>.3.<.<.5.3.3.3.5.",
"5.2.,.3.5.5.2.M ,.<.2.3.i > s 1.1.>.5.>.p k E #.S.N.| 7XeXrXtXuXuXuXuX-X#.. i p M ,.>.>.<.1.1.<.5.1.M >.1.,.2.5.3.3.3.3.",
"5.2.m ,.3.3.3.,.2.<.>.b g a s >.2.<.<.1.n k ] #XtX%X$.V.8XuXuXuXuXuXuXuXI.X <.3.<.<.1.<.>.>.,.2.<.1.M 2.,.<.5.3.3.5.5.3.",
"5.2.>.2.<.3.<.>.<.M b > <.,.n 2.,.2.2.>.Z ^ #XrXuXuX;X/ S.I.-XuXuXuXuXuX%X~ N 1.3.3.3.3.2.<.,.8.m <.1.<.2.3.3.3.3.3.3.3.",
"5.2.>.5.2.<.<.m 1.,.>.M n , p 3.3.M ,., R #X%X-X;X8XuX8X^ . ..uXuXuXuXuXuX-X5 >.3.3.,.2.3.>.2.2.-.3.1.m <.3.3.3.>.2.5.3.",
"3.3.1.>.5.2.,.>.3.<.M 1.: n 1.,.<.= X   R %X#XQ # +.rXrX;X^ ..uXuXuXuXuXuX;X5 ,.1.1.3.<.1.M 2.>.2.1.m <.1.1.3.3.>.1.5.3.",
"3.5.1.m ,.3.,.,.3.,.<.2.& s ,.M 1 N.A.R e %X%XJ.Z.#.R R R V.-XuXuXuXuXuXuX;X5 >.n % p 3.,.M 3.,.<.,.<.2.2.>.,.5.,.1.5.3.",
"3.5.1.>.3.<.,.<.,.n ,.,.z <.M h #.#X=X| e %X%X-X7XI. . .$.-XuXuXuXuXuXuXuX;X5 % ~ O.] g 1.>.2.5.,.1.2.3.,.m 1.5.,.2.5.3.",
"3.5.2.>.3.3.,.2.<.m M <.3.5.a q %X%X-X .e %X%X;XrXrX6X6XtXuXuXuXuXuXuXuXuX=X# 7 C.=XL.+ ;.2.M >.2.f >.<.m <.3.<.1.3.3.3.",
"3.5.3.1.<.6.2.,.2.>.2.1.1.2.a S K.=XrX$.q L.%X-X8XtXuXuXuXuXuXuXuXtXrXtX6XS.e J.-X-XL.+ ;.6.x % <.o m 1.<.3.5.3.3.3.5.3.",
"3.1.3.3.3.5.2.<.<.>.<.6.1.<.,.V 0 =XrX@.  7 P.%X-X8XuXuXuXuXuXuXrX%X#X%XZ.e L.8XtX7XJ.< >.5.x * 1.* m 5.3.5.2.2.3.3.3.3.",
"2.M <.3.3.5.<.1.1.<.>.>.1.<.3.2.B S e G b . q J.=X=X-X-X-X-X-X-X%XW 7 7 / #X8XuX8XJ.0 k ,.b a <.2.V ,.2.5.2.M 1.5.3.3.3.",
"2.M <.1.3.2.,.3.<.-.,.,.<.<.3.5.2.s x b H $.#./ Q ^ ^ ^ ^ ^ ^ ^ Q k x - W uXuXZ./ L B M ,.n >.5.1.<.3.,.2.<.M <.5.3.5.3.",
"2.>.5.1.1.<.>.6.,.M ,.<.1.<.3.3.>.M >.H #.%X%X..Q q   * * * * * , ,.1.>.J S.Z.D ; g ,.M 3.1.<.2.,.2.2.M ,.6.<.<.5.3.<.3.",
"3.<.<.5.1.,.1.1.M M ,.,.m 2.3.<.1.M :  .%X%X%X%XI.o.1 ,.<.,.m n >.5.1.1.>.& > N >.<.<.<.<.5.1.-.-.2.-.M ,.2.2.2.3.<.,.>.",
",.2.1.5.3.1.5.2.<.<.,.2.>.1.,.1.8.V :  .%X%X%X#X( f V M >.>.<.1.<.<.5.1.M >.<.,.<.,.,.,.<.2.,.m 1.<.M ,.<.1.2.5.3.M 2.2.",
"2.<.3.3.3.5.3.5.<.1.>.2.6.,.<.>.,.1.:  .%X%X#X^ N 1.-.<.M ,.>.,.,.1.5.1.M 2.>.<.5.1.<.1.3.2.M 1.<.2.2.<.2.1.<.<.5.>.-.3.",
"6.2.,.3.3.3.3.5.>.M <.3.7.1.,.1.m ,.>.H W W Q A >.3.-.>.2.3.1.1.2.3.3.2.2.5.2.2.3.5.3.5.5.2.-.3.2.<.3.2.3.<.m <.9.,.,.>.",
"5.5.2.1.-.-.<.3.>.<.<.1.3.2.>.8.>.2.<.M i , s V M 1.2.3.<.3.5.5.3.1.<.3.3.3.5.3.3.3.>.2.3.3.1.,.6.1.M <.<.m >.3.<.1.3.2.",
"3.5.2.>.1.1.,.M M 1.5.<.1.>.1.3.>.3.2.<.<.,.5.>.>.>.-.>.1.3.3.5.2.,.2.,.<.<.3.3.5.3.M M 2.3.3.2.5.1.>.3.,.>.3.3.2.3.5.5.",
"3.3.3.<.M m >.3.3.,.1.6.>.m 1.>.<.>.6.2.>.3.<.n m <.2.2.3.3.3.5.1.,.8.n <.1.<.5.3.3.-.2.,.3.5.5.3.3.3.5.3.3.5.3.5.3.3.3."
};
