/* XPM */
static char *b3207d01b4974c3eabc667c8ec41dc58dgeBR5CWh4d9PDEz[] = {
/* columns rows colors chars-per-pixel */
"60 60 209 2 ",
"   c #16060C",
".  c #170D0E",
"X  c #19090D",
"o  c #17130E",
"O  c #19140E",
"+  c #161C0D",
"@  c #181C0E",
"#  c #170F10",
"$  c #171513",
"%  c #1A1511",
"&  c #1B1C12",
"*  c #191E18",
"=  c #210A0F",
"-  c #250E11",
";  c #2A0C12",
":  c #320E14",
">  c #231513",
",  c #281612",
"<  c #361016",
"1  c #391116",
"2  c #341B16",
"3  c #3E1418",
"4  c #3E1819",
"5  c #17270D",
"6  c #19220F",
"7  c #1A2B0F",
"8  c #1A340F",
"9  c #1B390F",
"0  c #1D2313",
"q  c #1B2A11",
"w  c #1A251B",
"e  c #1A2D1D",
"r  c #1C3313",
"t  c #1D3B12",
"y  c #1C311C",
"u  c #1F3D1B",
"i  c #232C15",
"p  c #3A2819",
"a  c #263618",
"s  c #1A2F21",
"d  c #1B3422",
"f  c #1B3B26",
"g  c #1C3F28",
"h  c #3F2C23",
"j  c #263223",
"k  c #293425",
"l  c #333B28",
"z  c #393B29",
"x  c #43151A",
"c  c #451B1C",
"v  c #4B1A1C",
"b  c #531B1E",
"n  c #56231F",
"m  c #561C20",
"M  c #5B1D21",
"N  c #4A2A24",
"B  c #532321",
"V  c #5C2222",
"C  c #512A23",
"Z  c #4F3B2B",
"A  c #5A3124",
"S  c #573C24",
"D  c #632324",
"F  c #692726",
"G  c #642924",
"H  c #6C2A27",
"J  c #6A2829",
"K  c #742E2B",
"L  c #77362C",
"P  c #7B332B",
"I  c #7C3330",
"U  c #1A460F",
"Y  c #1D4312",
"T  c #1D4B12",
"R  c #1E441A",
"E  c #1F5412",
"W  c #1E5B13",
"Q  c #1F511C",
"!  c #244417",
"~  c #214B14",
"^  c #2B421B",
"/  c #264F1C",
"(  c #215D15",
")  c #265418",
"_  c #26541C",
"`  c #32531E",
"'  c #315C1E",
"]  c #1E6513",
"[  c #1E6C13",
"{  c #1E7513",
"}  c #1F7C13",
"|  c #216314",
" . c #216D14",
".. c #25691C",
"X. c #32671F",
"o. c #217314",
"O. c #227C15",
"+. c #1E4227",
"@. c #1D442A",
"#. c #1F4B2D",
"$. c #1F502F",
"%. c #204626",
"&. c #234926",
"*. c #224C2B",
"=. c #38452B",
"-. c #245C22",
";. c #22522D",
":. c #285729",
">. c #245B2C",
",. c #2A5C2A",
"<. c #355D21",
"1. c #215531",
"2. c #235C33",
"3. c #2A5832",
"4. c #26622C",
"5. c #2D652C",
"6. c #266A2C",
"7. c #2A6C2D",
"8. c #396A23",
"9. c #336D2D",
"0. c #3F6E2D",
"q. c #287927",
"w. c #2B722D",
"e. c #3C7225",
"r. c #36742E",
"t. c #37792E",
"y. c #3A7B2E",
"u. c #246235",
"i. c #296633",
"p. c #276A34",
"a. c #296C34",
"s. c #2A7334",
"d. c #2C7C33",
"f. c #307032",
"g. c #347C35",
"h. c #387F31",
"j. c #564529",
"k. c #475127",
"l. c #4E772E",
"z. c #786B32",
"x. c #84362E",
"c. c #86392F",
"v. c #89392F",
"b. c #843832",
"n. c #8C3C31",
"m. c #8E3F38",
"M. c #913F34",
"N. c #81452F",
"B. c #924136",
"V. c #97443A",
"C. c #9E493D",
"Z. c #A34C3F",
"A. c #9E4A41",
"S. c #A44D41",
"D. c #A84F44",
"F. c #AB5245",
"G. c #AE5448",
"H. c #B3574A",
"J. c #B5584B",
"K. c #1F8113",
"L. c #208413",
"P. c #218C14",
"I. c #278119",
"U. c #229414",
"Y. c #249C15",
"T. c #269518",
"R. c #25A315",
"E. c #26AD15",
"W. c #28AF17",
"Q. c #26B015",
"!. c #28B217",
"~. c #28B417",
"^. c #28BA17",
"/. c #29B618",
"(. c #29B918",
"). c #31872F",
"_. c #2E8433",
"`. c #2F8B33",
"'. c #338434",
"]. c #3B8432",
"[. c #318B33",
"{. c #3D8D34",
"}. c #349533",
"|. c #349633",
" X c #3F9036",
".X c #369933",
"XX c #3B9D34",
"oX c #3EA034",
"OX c #42842A",
"+X c #448A2C",
"@X c #53822E",
"#X c #48922D",
"$X c #4C9B2F",
"%X c #418B30",
"&X c #459533",
"*X c #449C34",
"=X c #4B9D32",
"-X c #41B128",
";X c #43A434",
":X c #4DA333",
">X c #47A935",
",X c #4CAC35",
"<X c #51A532",
"1X c #5DA135",
"2X c #51AD34",
"3X c #4FB135",
"4X c #54B536",
"5X c #57B936",
"6X c #58BB37",
/* pixels */
"E.E.E.Q.E.Q.U.{ { Y.Q.E.L.Y.R.L.E.E.E.E.E.E.E.E.E.E.E.K.E.P.Y.R.} Q.R.{ L.E.~.U.Y.E.L.Y.^.P.R.E.E.E.E.Q.E.E.E.E.E.E.E.E.",
"E.E.E.R.E.Q.R.R.E.E.E.E.Y.P.Y.E.E.Q.Q.E.Q.E.E.E.E.E.R.L.Y.Q.U.U.L.E.P.} P.K.} U.E.E.R.K.E.Q.P.E.E.E.E.E.Q.E.E.E.E.E.E.E.",
"E.E.Y.P.R.E.L.L.E.Q.E.E.L.E.L.R.R.Y.R.E.R.E.Q.E.E.R.P.U.L.E.Q.L.R.U.K.} U.R.P.U.E.E.Y.} R.Q.E.E.E.Q.U.L.R.Q.E.E.E.Q.E.E.",
"Q.R.P.E.} U.} } U.E.E.R.P./.L.U.L.L.U.L.P.E.R.Q.E.L.E.U.Y.R.E.K.Y.L.Y.E.E.P.R.Y.Y.R.P.} R.Q.E.E.E.Q.U.} U.R.Q.E.E.R.E.E.",
"E.U.Y.!.{ Y.Y.U.R.U.R.K.Y.Q.} L.U.R.Y.} P.E.U.R.Q.U.~.L.L.U.(.L.E.R.U.R.Q.Y.E.U.L.P.(.L.R.Q.E.Q.E.Q.U.U.E.U.R.Q.E.} U.E.",
"R.} R.U.U.E.U.P.E.R.U.L.R.Y.L.U.L.L.U.Y.L.E.E.U.U.R.R.{ L.E.R.U.R.R.E.U.U.R.R.} } R.R.P.E.Q.E.Y.E.Q.Y.L.Y.Y.U.R.E.} P.U.",
"P.U.Y.K.R.P.Y.Y.Y.^.Y.R.E.U.R.} U.E.E.Q.R.Y.^.U.} R.} L.E.E.U.E.R.U.~.Y.{ Y.L.} R.E.U.R.E.Q.R.{ U.E.Q.Y.} R.U.U.Y.{ U.Y.",
"Y.U.R.P.P.Y.E.E.E.E.E.E.E.Q.R.} U.U.E.R.Y.Q.Q.Y.P.R.Y.R.Q.E.Y.E.U.R.R.Y.U.E.Y.R.Q.E.E.Q.E.Q.R.} U.Y.Q.R.P.Q.U.} P.U.Y.Y.",
"~.Y.E.R.Y.E.E.E.Q.E.E.E.E.Q.R.K.Q.Y.U.U.L.Q.Y.Y.L.} R.Q.Q.R.L.(.W q q 7 Y E.Q.Q.E.E.E.U.E.Q.R.} U.P.Y.P.P.~.P.K.P.P.U.U.",
"E.Q.E.E.Q.E.Q.Y.Y.E.E.E.E.E.P.P.U.R.{ L.Y.Y.{ U.L.P.U.R.E.L.W  ./ ` ` ` ' | | o.E.E.U.Y.U.E.E.L.K.E.Y.P.R.Y.{ } U.U.U.E.",
"E.E.E.E.E.E.Q.P.{ Y.E.E.E.P.Y.U.Y.Y.L.Y.U.R.U.R.L.Y.E.P.Y.( & % <.5X4X4X=X0 % t Y.R.L./.P.Y.U.E.L.Q.E.R.Q.R.U.Y.E.Q.Q.E.",
"E.E.R.L.K.U.E.L.P.U.Y.E.E.L./.L.E.E.R.Q.Y.U.E.Q.R.L.E.W.T ^ =X=X<X4XXX.X}.).).7.0 I.R.!.} K.R.!.L.E.E.Q.E.E.Q.Q.E.E.E.E.",
"Q.R.L.Y.Y.P.K.} U.~.U.Y.L.Y.Q.L.R.Q.R.K.U.Y.U.E.U.] W | ' l.4X5X3X;X.X}.}..X_.a.g R ] L.{ Y.R.P.R.E.E.E.U.Y.E.E.E.L.R.Q.",
"E.E.Y.K.} L.Y.R.U.Y.!.P.{ Y.P.R.P.Y.L.L.Y.R.L.L.P.) & & OX4X4X5X>X}.}.}.[.[.s.2.2.* 8 } Y.R.L.R.E.E.Q.U.Y.Y.Y.E.E.K.R.Q.",
"E.E.E.R.R.U.K.K.U.L.Y.L.Y.R.L.(.} { { P.E.Y.T O @ e.:X).}.;X4X5X>X}.}.d.i.i.u.2.g $ 9 R.E.Y.L.E.P.E.Q.U.R.Y.P.P./.P.R.Q.",
"E.E.E.E.Q.E.R.R.E.L.} U.E.L.R.E.L.U.L.R.P.( ` 8.8.$X3X.X}..X;X;X>X>X.X[.d.i.u.2.f s y T T.} L.E.E.P.R.R.E.P.{ Y.~.P.R.Q.",
"Q.E.Y.L.R.Q.Q.Q.E.K.Y.Y.P.[ L.o.P.L.L.R.I.i e.6X5X4X>X}.}.}.}.}.oX,X.X}.[.i.2.;.f f e . O.P.!.U.~.R.{ U.U.{ U.E.U.Y.E.E.",
"Q.R.K.U.L.E.Q.R.L.{ U./.E o O o o @ L.W 0 #X4X4X4X;X}.}.}.}.}.}.}.}.}.}.[.p.*.g f f e . W R.E.E.E.U.P.E.U.U.E.E.E.E.E.E.",
"Q.R.K.Y.L.R.R.U.} ] Y T X.e.e.e.e.e.) 7 O $X5X5X5X;X}.}.}.}.}.d.s.s.}._.s.*X*X].+.f e . ] R.K.R.U.U.E.E.E.E.E.E.E.E.E.E.",
"Q.R.L.R.Y.} P.E.P.~ i i OX6X5X5X4X=Xa 0 ^ :X4X,X,XoX}.}.}.}._.p.u.u.s.d.].4X4X*X4.>.%.. o.R.L.U.U.E.E.Q.R.R.Q.E.E.E.E.E.",
"E.Q.Y.L.E.L.L.Y.q <.4X2X4X4X4X4X*Xi.2.g.4X4X>X}.}.}.}.}.}._.u.u.u.2.g r.4X4X;X}.}.}.w.% | R.U.U.E.E.E.R.U.U.R.Q.Q.Q.E.E.",
"Q.Q.R.Y.^.!.o.! e.$X5X5X4X4X4X{.s.u.#.7.oXXX.X}.}.}.}.}.}.[.u.u.1.@.f 5.XXXX.X[.a.p.u.;.y T } U.Q.Q.Q.U.Y.Y.U.Y.P.U.E.Q.",
"E.E.Q.E.E.Q. .% =X5X4X4X4X4X4Xg.2.2.@.>.}.}.}.}.}.}.}.}.[.d.u.u.1.f f 4.}.w.7.6.;.#.#.#.e y Y T ( ( ( o.E.U.} P.U.Y.U.E.",
"Q.R.U.E.E.Q. .% $X5X4X4X4X4X4Xg.u.2.@.>.}.}.}.}.}.}.}.}.s.u.u.2.;.f f 6.}.;.+.+.+.g f f f y 0 0 0 0 & ( R.P.K.P.P.U.U.E.",
"Q.R.{ U.E.R.W & $X5X2Xg.s.s.s.p.u.u.@.+.;.[._.p.p.p.p.p.i.u.u.#.g f f 9.4X,XXX[.[.>.f f f ,.:X<X<X:X[.) q [ } U.U.U.E.Q.",
"Q.R.} Y.U.U.T % ].&X].;.$.;.;.;.;.;.@.f g s.s.u.u.u.2.2.u.u.u.@.f f f 9.4X>XXX}.}.a.#.g 9.&X5X5X3X;X.Xd.-.t o.E.Q.Q.E.E.",
"Q.R.L.Q.Y.P.| % ;.;.g +.%.+.f f f f %.&.&.2.u.u.u.u.u.u.u.u.2.@.f g &.t.,X.X}.}.}.s.2.@.&X5X3X3X>X}.[.[.d.w ( T.E.E.E.E.",
"E.E.U.P.Q.R.W % ;.#.%.&X:X%X+.f f g %X,X:Xa.u.u.u.u.u.u.u.2.@.f f +.&X>X}.}.}.}.}.s.2.u.*X,X.X.X}.}.p.u.u.2.e r R.P.R.E.",
"E.E.E.U.U.E. .# ;.a.y.4X5X,X7.6.7.y.:X5X4X[.d.d.d.i.#.#.#.@.f f ;.].*XXX}.}.}.}.d.>.>.&X2X,X}.}.[.s.i.1.@.@.d e t P.P.R.",
"E.Q.R.P.R.U.O.& >. X5X4X4X,X.X}.XX4X4X4X,XXX}.}..X7.g f f f k &.t.4XXX}.[.[.[._.i.#.:.4X5X,X}.[.d.u.u.*.f f f d . I.L.R.",
"Q.E.Y.U.E.L.P.o.;X4X4XXX.X.X}.s.g.4XoX.X.X}.}.}.}.d.2.g f k B @X4X4XXX_.u.u.u.u.u.#.:.2X4X,X}.s.u.u.u.*.f f f d . W } R.",
"R.R.K.E.R.U ..-X4X,X;X.X}.}.d.].=X4XXX}.}.d.s.s.s.p.2.1.@.k m S l.4X'.p.2.#.@.@.@.r.*XXXXX;X,Xs.2.2.@.f f f f d . O.U.R.",
"P.U.L.E.L.+ ^ 4X5X>X}.[.[._.2.{.3X,XXX}._.p.u.2.1.1.1.1.@.k D M j.&Xi.1.;.f *.5.5.{.>X}.`.'.].p.a.'.r.5.4.4.+.e T L.^.^.",
"!.P.E.R.} 5 ^ 4X4X>X}.p.u.2.+.w..X}.}._.i.u.u.2.@.f f f f l c.F N 1.@.f f g y.4X4X;X}.}.s.1.g 1.].4X4X>X}.}.&.q T.P.E.^.",
"E.E.E.E.E.8 ^ 4Xt.,.>.#.@.@.f w..X}.d.p.u.#.@.@.f f f f f l c.F c * d f +.%X2X4XoX.X}.}.s.1.g %X4X4XoX.X}.a.2.&.q O.Q.Q.",
"E.E.E.Q.E.9 i OX5.,.,.,.&.f f 4.d._.i.1.;.#.@.@.#.@.f f f l c.F x . Q -.y =X4X>X.X[.d.d.i.#.g &X4X>X'.d.d.i.u.;.# o.Q.E.",
"E.E.Q.R.P.8 . & #X4X4X4Xt.f g g @.2.@.f g 2.u.u.u.*.f f f z c.F x . O.I., $X>X}.}.s.2.p.;.&.*.&X>X'.u.2.2.2.2.*.# o.Q.E.",
"E.E.E.O.r 8.+X+XXXXXXXXX[._._.>.@.2.@.@.2.2.u.u.u.#.f f Z L n.F x . 6 p L 1X>X}.a.;.;.:X,X,X,XoXd.+.+.g g g g d . o.Q.E.",
"E.E.E.o.o OX6X5XXX}.}.}.[._._.4.&.=.*.;.u.u.u.u.u.6...e A n.n.F x     4 n.z.l.s.;.5.+X4X,X;X;X'.p.*.g f f f f d .  .Q.E.",
"E.E.E.P.& OX5X4XXX}.}.}.d.u.u.u.3.C =.3.3.1.1.2.u.q.O.+ B n.x.D 4 . = v n.x.j.1.f y.5X4X;X}.}.s.u.2.@.f f f d e r L.Q.E.",
"Q.R.E ! +X2X,XXX.X_.p.p.i.u.u.u.i.h.j.B B > % & I.Y.P.+ n x.D < . . G c.v.D h f f y.5X4X;X}.}.s.u.2.@.f f f w q Y.E.E.E.",
"Q.R.8 i 4X5X,X}._.s.2.;.*.*.#.f.{.}.0.j.K V 4 . Y T ~ 2 K V.M ; - V P x.F 4 > w y.:X4X;X.X[.s.;.@.@.g e $ $ T P.E.Q.Q.E.",
"Q.R.t a =X2X>X[.p.2.2.@.f g &.%X3X}.`.l.n.n.G = = = ; V m.C.D 1 4 M.v.H x X = p <X4X>X}.}.[.u.#.@.f f w . r O.Q.E.E.E.E.",
"Q.R.} O.i :.a.i.u.1.g f f &.=X4X,Xp.#.=.v.n.K b b b V S.C.n.v.D J F.K x .   c N.1X>X}.}.}.[.i.u.1.f f w @ T.Q.E.L.R.Q.E.",
"E.E.Y.} ] R d #.#.@.f f f +.9.h.g.i.#.j c P c.P K b.V.G.C.v.n.B.m.K x = . n J G j.l.,X.Xd.p.u.#.@.f f w o P.E.E.L.Y.Q.E.",
"E.Q.Y.{ P.E 0 d f f f f f f s g *.*.f e q A P n.B.Z.J.H.S.B.n.D.A.M < ; 4 H H b x k.>X[.a.2.1.@.f f s u ~ L.P.!.P.Y.Q.E.",
"E.Q.Y.L.E.P. .% s f f f f d % . o . . q O.t x n.F.H.H.H.H.F.n.D.A.V m D c.D m v > / [.i.2.1.g f f d & E P.{ Y.!.P.R.Q.E.",
"E.Q.R.L.E.E.L. .r $ $ $ $ 0 W ] O.W ] ] L.7 : J D.J.H.H.H.G.n.D.D.x.P x.v.D x , o.E * $ s @.f f s % ] L.{ U.E.U.Y.E.E.E.",
"E.Q.E.Y.U.~.R.P.E 7 r t 7 Y { E.E.{ L.Y.R.W a c b.S.H.H.J.G.n.V.C.n.n.n.v.D 3 o [ o.T T u w w w y E Y.Y.U.E.Q.E.E.E.Q.E.",
"E.Y.E.E.E.Q.R.U.U.P.U.!.Y.U.L.R.U.{ P.L.L.Y.O.. v I G.G.G.D.n.c.c.c.c.c.x.D 3 o [ R.K.U.| @ @ @ T R.R.E.E.Q.R.R.E.E.E.E.",
"R.} U.E.E.Q.U.Y.Y.U.L.L.Y.U.E.E.L.L.U.E.E.Q.o.. v D J J J F D D D D D D D M 3 o P.Q.P.{ L.Y.Y.Y.Y.U.U.R.Q.R.} Y.Q.E.E.E.",
"R.} U.Y.E.R.P.E.U.K.P.P.U.U.E.Q.E.Y.E.R.Y.Q.o.. : 1 1 1 1 1 1 1 1 < < < < < ; o O.E.E.} P.U.E.Q.Y.U.E.P.R.U.} U.Q.E.Q.E.",
"R.L.Q.Y.Y.U.L.~.P.} P.U.Y.U.E.E.L.} E.U.{ Y.o.@ 6 @ @ @ o o o o @ 6 @ 6 6 @ 6 q o.P.L.} E.Y.U.R.P.R.R.} P.~.U.U.Q.E.U.E.",
"E.U.U.Q.Y.P.Y.Y.} } P.P.{ R.E.U.T.} E.U.O.U.P.O.T.Y.L.L.P.L.] ] { R.P.P.U.L.R.P.} P.U.U.U.Q.Y.K.K.R.K.} P.R.R.R.E.U.P.L.",
"P.R.Y.Q.E.Y.Q.R.U.U.P.R.L.Y.P.Y./.L.E.U.P.Q.U.P.R.~.L.K.L.L.U.Y.U.U.~.Y.} P.Y.U.U.P.P.P.U.R.P.{ Y.U.} P.U.Y.R.Q.E.} R.R.",
"R.U.E.E.E.Q.E.Q.U.Y.L.R.~.P.U.L.P.Y.Q.E.U.L.Y.U.Y.E.K.U.} P.L.P.P.Y.Q.Y.} R.L.U.Q.Y.U.Y.E.R.} Y.U.R.R.U.R.Y.U.U.!.L.K.E.",
"~.R.P.E.E.E.E.Q.L.} U.E.^.Y.P.Y.{ P.E.Q.R.K.R.Y.U.E.K.L.R.E.Y.Y.R.E.E.R.R.Q.R.R.E.Q.E.Q.Q.R.K.E.R.U.E.R.E.U.{ U.(.P.P.L.",
"Q.Q.R.Y.K.K.U.E.L.U.U.Y.E.R.L./.L.R.P.E.Y.L.Q.U.{ Y.E.E.U.E.Q.Q.E.Y.U.E.E.E.Q.E.E.E.L.R.E.E.Y.P.~.Y.} U.U.{ L.E.U.Y.E.R.",
"E.Q.R.L.Y.Y.P.} } Y.!.U.Y.L.Y.E.L.E.R.U.U.P.E.L.L.L.K.L.Y.E.E.Q.R.P.R.P.U.U.E.E.Q.E.} } R.E.E.R.Q.Y.L.E.P.L.E.E.R.E.Q.Q.",
"E.E.E.U.} { L.E.E.P.Y.~.L.{ Y.L.U.L.~.R.L.E.U.[ { U.R.R.E.E.E.Q.Y.P.!.[ U.Y.U.Q.Q.E.K.R.P.E.Q.Q.E.E.E.Q.E.E.Q.E.Q.E.E.E."
};
